<svg width="13" height="13" viewBox="0 0 13 13" fill="none" xmlns="http://www.w3.org/2000/svg">
<path d="M7 1.75H0.875C0.382812 1.75 0 1.36719 0 0.875C0 0.410156 0.382812 0 0.875 0H7C7.46484 0 7.875 0.410156 7.875 0.875C7.875 1.36719 7.46484 1.75 7 1.75ZM7 8.75H0.875C0.382812 8.75 0 8.36719 0 7.875C0 7.41016 0.382812 7 0.875 7H7C7.46484 7 7.875 7.41016 7.875 7.875C7.875 8.36719 7.46484 8.75 7 8.75ZM0 4.375C0 3.91016 0.382812 3.5 0.875 3.5H11.375C11.8398 3.5 12.25 3.91016 12.25 4.375C12.25 4.86719 11.8398 5.25 11.375 5.25H0.875C0.382812 5.25 0 4.86719 0 4.375ZM11.375 12.25H0.875C0.382812 12.25 0 11.8672 0 11.375C0 10.9102 0.382812 10.5 0.875 10.5H11.375C11.8398 10.5 12.25 10.9102 12.25 11.375C12.25 11.8672 11.8398 12.25 11.375 12.25Z" fill="#3E3232" fill-opacity="0.5"/>
</svg>
