<svg width="15" height="15" viewBox="0 0 15 15" fill="none" xmlns="http://www.w3.org/2000/svg">
<path d="M13.2891 1.06641C14.3555 2.13281 14.3555 3.85547 13.2891 4.92188L10.5273 7.68359L10.7734 7.95703C11.1289 8.28516 11.1289 8.85938 10.7734 9.1875C10.4453 9.54297 9.87109 9.54297 9.54297 9.1875L5.16797 4.8125C4.8125 4.48438 4.8125 3.91016 5.16797 3.58203C5.49609 3.22656 6.07031 3.22656 6.39844 3.58203L6.67188 3.82812L9.43359 1.06641C10.5 0 12.2227 0 13.2891 1.06641ZM1.61328 9.10547L4.92188 5.79688L6.15234 7.02734L2.84375 10.3359C2.76172 10.418 2.73438 10.5273 2.73438 10.6367V11.6211H3.71875C3.82812 11.6211 3.9375 11.5938 4.01953 11.5117L7.32812 8.20312L8.55859 9.43359L5.25 12.7422C4.83984 13.1523 4.29297 13.3711 3.71875 13.3711H2.54297L1.44922 14.1094C1.12109 14.3555 0.65625 14.3008 0.355469 14C0.0546875 13.6992 0 13.2344 0.246094 12.9062L0.984375 11.8125V10.6367C0.984375 10.0625 1.20312 9.51562 1.61328 9.10547Z" fill="#3E3232" fill-opacity="0.5"/>
</svg>
