<svg width="14" height="13" viewBox="0 0 14 13" fill="none" xmlns="http://www.w3.org/2000/svg">
<path d="M4.18359 2.40625C4.89453 2.40625 5.49609 3.00781 5.49609 3.71875C5.49609 4.45703 4.89453 5.03125 4.18359 5.03125C3.44531 5.03125 2.87109 4.45703 2.87109 3.71875C2.87109 3.00781 3.44531 2.40625 4.18359 2.40625ZM12.25 0C13.2344 0 14 0.792969 14 1.75V10.5C14 11.4844 13.207 12.25 12.25 12.25H1.75C0.792969 12.25 0 11.4844 0 10.5V1.75C0 0.792969 0.792969 0 1.75 0H12.25ZM12.6875 10.3359V1.75C12.6875 1.53125 12.4961 1.3125 12.25 1.3125H1.75C1.53125 1.3125 1.3125 1.53125 1.3125 1.75L1.33984 10.5L3.39062 7.92969C3.5 7.82031 3.63672 7.73828 3.80078 7.73828C3.96484 7.73828 4.10156 7.82031 4.21094 7.92969L5.22266 9.1875L8.12109 5.25C8.23047 5.11328 8.36719 5.03125 8.55859 5.03125C8.72266 5.03125 8.85938 5.11328 8.94141 5.25L12.6875 10.3359Z" fill="#3E3232" fill-opacity="0.5"/>
</svg>
