<svg width="18" height="14" viewBox="0 0 18 14" fill="none" xmlns="http://www.w3.org/2000/svg">
<path d="M4.62109 3.41797C6.15234 1.88672 8.66797 1.88672 10.1992 3.41797C11.5664 4.78516 11.7578 6.94531 10.6367 8.53125L10.6094 8.55859C10.3359 8.96875 9.78906 9.05078 9.37891 8.77734C8.99609 8.47656 8.88672 7.92969 9.1875 7.54688L9.21484 7.51953C9.84375 6.61719 9.73438 5.44141 8.96875 4.67578C8.12109 3.80078 6.72656 3.80078 5.85156 4.67578L2.78906 7.73828C1.91406 8.58594 1.91406 9.98047 2.78906 10.8555C3.55469 11.6211 4.75781 11.7031 5.63281 11.1016L5.66016 11.0469C6.07031 10.7734 6.61719 10.8555 6.89062 11.2656C7.16406 11.6484 7.08203 12.1953 6.69922 12.4961L6.64453 12.5234C5.05859 13.6445 2.92578 13.4531 1.55859 12.0859C0 10.5547 0 8.03906 1.55859 6.50781L4.62109 3.41797ZM12.6875 10.1992C11.1562 11.7578 8.64062 11.7578 7.10938 10.1992C5.74219 8.83203 5.55078 6.69922 6.67188 5.11328L6.69922 5.08594C6.97266 4.67578 7.51953 4.59375 7.92969 4.86719C8.3125 5.14062 8.42188 5.6875 8.12109 6.09766L8.09375 6.125C7.46484 7 7.57422 8.20312 8.33984 8.96875C9.1875 9.84375 10.582 9.84375 11.457 8.96875L14.5195 5.90625C15.3945 5.03125 15.3945 3.63672 14.5195 2.78906C13.7539 2.02344 12.5508 1.91406 11.6758 2.54297L11.6484 2.57031C11.2383 2.87109 10.6914 2.76172 10.418 2.37891C10.1445 1.99609 10.2266 1.44922 10.6094 1.14844L10.6641 1.12109C12.25 0 14.3828 0.191406 15.75 1.55859C17.3086 3.08984 17.3086 5.60547 15.75 7.13672L12.6875 10.1992Z" fill="#3E3232" fill-opacity="0.5"/>
</svg>
