<svg width="13" height="13" viewBox="0 0 13 13" fill="none" xmlns="http://www.w3.org/2000/svg">
<path d="M6.125 6.125C7.08203 6.125 7.875 6.91797 7.875 7.875C7.875 8.85938 7.08203 9.625 6.125 9.625C5.14062 9.625 4.375 8.85938 4.375 7.875C4.375 6.91797 5.14062 6.125 6.125 6.125ZM11.8398 2.67969C12.0859 2.92578 12.25 3.28125 12.25 3.60938V10.5C12.25 11.4844 11.457 12.25 10.5 12.25H1.75C0.765625 12.25 0 11.4844 0 10.5V1.75C0 0.792969 0.765625 0 1.75 0H8.64062C8.96875 0 9.32422 0.164062 9.54297 0.382812L11.8398 2.67969ZM3.5 1.3125V3.5H7.4375V1.3125H3.5ZM10.9375 10.5V3.69141C10.9375 3.63672 10.9102 3.60938 10.8828 3.58203L8.75 1.42188V4.15625C8.75 4.53906 8.44922 4.8125 8.09375 4.8125H2.84375C2.46094 4.8125 2.1875 4.53906 2.1875 4.15625V1.3125H1.75C1.50391 1.3125 1.3125 1.53125 1.3125 1.75V10.5C1.3125 10.7461 1.50391 10.9375 1.75 10.9375H10.5C10.7188 10.9375 10.9375 10.7461 10.9375 10.5Z" fill="white"/>
</svg>
