<svg width="15" height="15" viewBox="0 0 15 15" fill="none" xmlns="http://www.w3.org/2000/svg">
<path d="M13.7266 0.164062C13.9453 0.300781 14.0547 0.546875 13.9727 0.792969L12.2227 12.6055C12.1953 12.7969 12.0859 12.9883 11.8945 13.0703C11.8125 13.125 11.7031 13.1797 11.5938 13.1797C11.4844 13.1797 11.4023 13.1523 11.3203 13.125L8.64062 11.9766L5.60547 13.9453C5.49609 14 5.35938 14.0273 5.25 14.0273C5.16797 14.0273 5.05859 14 4.94922 13.9727C4.73047 13.8359 4.62109 13.6172 4.62109 13.3711V10.2812L0.410156 8.53125C0.191406 8.42188 0.0273438 8.20312 0.0273438 7.95703C0 7.71094 0.136719 7.46484 0.355469 7.35547L13.043 0.136719C13.2617 0 13.5352 0.0273438 13.7266 0.164062ZM10.1172 3.30859L2.16016 7.82031L5.00391 9.02344L10.1172 3.30859ZM5.90625 12.168L7.16406 11.375L5.90625 10.8281V12.168ZM11.0742 11.5664L12.3867 2.73438L6.26172 9.54297L11.0742 11.5664Z" fill="white"/>
</svg>
