<svg width="18" height="15" viewBox="0 0 18 15" fill="none" xmlns="http://www.w3.org/2000/svg">
<path d="M11.4297 1.20312L7.92969 13.4531C7.79297 13.918 7.32812 14.1914 6.86328 14.0547C6.39844 13.918 6.125 13.4531 6.26172 12.9883L9.76172 0.738281C9.89844 0.273438 10.3633 0 10.8281 0.136719C11.293 0.273438 11.5664 0.738281 11.4297 1.20312ZM14.2734 3.41797L17.3359 6.48047C17.6914 6.80859 17.6914 7.38281 17.3359 7.71094L14.2734 10.7734C13.9453 11.1289 13.3711 11.1289 13.043 10.7734C12.6875 10.4453 12.6875 9.87109 13.043 9.54297L15.4766 7.08203L13.043 4.64844C12.6875 4.32031 12.6875 3.74609 13.043 3.41797C13.3711 3.0625 13.9453 3.0625 14.2734 3.41797ZM4.64844 4.64844L2.21484 7.08203L4.64844 9.54297C5.00391 9.87109 5.00391 10.4453 4.64844 10.7734C4.32031 11.1289 3.74609 11.1289 3.41797 10.7734L0.355469 7.71094C0 7.38281 0 6.80859 0.355469 6.48047L3.41797 3.41797C3.74609 3.0625 4.32031 3.0625 4.64844 3.41797C5.00391 3.74609 5.00391 4.32031 4.64844 4.64844Z" fill="#3E3232" fill-opacity="0.5"/>
</svg>
